<svg width="96" height="86.74" viewBox="0 0 68 75" fill="none" xmlns="http://www.w3.org/2000/svg">
<path d="M2.9783 1.48315H53.8519C55.1893 1.48315 56.2734 2.56713 56.2734 3.90457V71.1704C56.2734 72.5078 55.1894 73.5919 53.8519 73.5919H2.9783C1.641 73.5919 0.5569 72.5079 0.5569 71.1704V3.90447C0.5571 2.56718 1.6411 1.48315 2.9783 1.48315Z" fill="#666666" stroke="#5398FF" stroke-opacity="0.77"/>
<path d="M40.9607 67.2477H44.1186V74.0913H42.5095C41.6577 74.0913 40.9613 73.3949 40.9613 72.5431L40.9607 67.2477Z" fill="#4D4D4D"/>
<path d="M3.6079 6.15741H53.2221C53.4096 6.15741 53.5613 6.30931 53.5613 6.49661V66.908C53.5613 67.0955 53.4094 67.2472 53.2221 67.2472H3.6079C3.4204 67.2472 3.2688 67.0953 3.2688 66.908V6.49681C3.2686 6.30931 3.4206 6.15741 3.6079 6.15741Z" fill="white"/>
<path d="M28.4159 72.4518C29.4681 72.4518 30.3211 71.5988 30.3211 70.5466C30.3211 69.4944 29.4681 68.6414 28.4159 68.6414C27.3637 68.6414 26.5107 69.4944 26.5107 70.5466C26.5107 71.5988 27.3637 72.4518 28.4159 72.4518Z" fill="#ECF0F1"/>
<path d="M5.9161 13.7234H50.9146V40.2455H5.9161V13.7234Z" fill="#524683"/>
<path d="M42.8909 27.6496H66.4596C67.0023 27.6496 67.4426 28.0897 67.4426 28.6325V72.6086C67.4426 73.1513 67.0024 73.5915 66.4596 73.5915H42.8909C42.3482 73.5915 41.9079 73.1514 41.9079 72.6086V28.6324C41.9081 28.0895 42.3482 27.6496 42.8909 27.6496Z" fill="#666666" stroke="#5398FF" stroke-opacity="0.77"/>
<path d="M43.9951 31.5438H65.3558C65.4364 31.5438 65.5019 31.6091 65.5019 31.6899V69.5512C65.5019 69.6318 65.4366 69.6972 65.3558 69.6972H43.9951C43.9144 69.6972 43.849 69.632 43.849 69.5512V31.6901C43.849 31.6092 43.9144 31.5438 43.9951 31.5438Z" fill="white"/>
<path d="M54.6747 73.0359C55.4149 73.0359 56.0149 72.4358 56.0149 71.6956C56.0149 70.9554 55.4149 70.3554 54.6747 70.3554C53.9345 70.3554 53.3344 70.9554 53.3344 71.6956C53.3344 72.4358 53.9345 73.0359 54.6747 73.0359Z" fill="#ECF0F1"/>
<path d="M51.0895 29.5692H58.2616C58.4425 29.5692 58.5891 29.7159 58.5891 29.8968C58.5891 30.0777 58.4425 30.2249 58.2616 30.2249H51.0895C50.9086 30.2249 50.7619 30.0783 50.7619 29.8974C50.7619 29.7167 50.9086 29.5692 51.0895 29.5692Z" fill="#ECF0F1"/>
<path d="M18.6197 48.059C18.6197 45.9923 16.9444 44.3175 14.8782 44.3175C12.812 44.3175 11.1369 45.9923 11.1367 48.059H18.6197ZM18.6197 48.059C18.6197 50.1252 16.9443 51.8005 14.8782 51.8005M18.6197 48.059L14.8782 51.8005M14.8782 51.8005C12.812 51.8005 11.1367 50.1252 11.1367 48.059L14.8782 51.8005Z" stroke="#5398FF" stroke-width="0.5"/>
<path d="M9.1512 53.7626H20.6061V54.5722H9.1512V53.7626ZM9.1512 58.8528H16.8456V59.6624H9.1512V58.8528ZM9.1512 56.3073H20.6061V57.117H9.1512V56.3073Z" fill="#474846"/>
<path d="M26.7164 48.059V48.059C26.7163 45.9923 28.3917 44.3175 30.4579 44.3175C32.5242 44.3175 34.1994 45.9923 34.1994 48.059C34.1994 50.1252 32.5241 51.8005 30.4579 51.8005C28.3918 51.8005 26.7164 50.1252 26.7164 48.059Z" stroke="#5398FF" stroke-width="0.5"/>
<path d="M24.7304 53.7626H36.1853V54.5722H24.7304V53.7626ZM24.7304 58.8528H32.4248V59.6624H24.7304V58.8528ZM24.7304 56.3073H36.1853V57.117H24.7304V56.3073Z" fill="#424641"/>
<path d="M53.5619 11.9682H3.2686V6.49679C3.2686 6.30989 3.421 6.15759 3.6077 6.15759H53.2225C53.4098 6.15759 53.5617 6.31009 53.5617 6.49679L53.5619 11.9682Z" fill="#1782FF"/>
<path d="M6.9959 7.81042C7.7187 7.81042 8.3041 8.39563 8.3041 9.11863C8.3041 9.84163 7.7189 10.4268 6.9959 10.4268C6.2734 10.4268 5.6877 9.84163 5.6877 9.11863C5.6877 8.39563 6.2736 7.81042 6.9959 7.81042Z" fill="white"/>
<path d="M10.6788 7.81042C11.4016 7.81042 11.9869 8.39563 11.9869 9.11863C11.9869 9.84163 11.4018 10.4268 10.6788 10.4268C9.9563 10.4268 9.3706 9.84163 9.3706 9.11863C9.3706 8.39563 9.9561 7.81042 10.6788 7.81042Z" fill="white"/>
<path d="M14.3614 7.81042C15.0843 7.81042 15.6696 8.39563 15.6696 9.11863C15.6696 9.84163 15.0844 10.4268 14.3614 10.4268C13.639 10.4268 13.0532 9.84163 13.0532 9.11863C13.0532 8.39563 13.639 7.81042 14.3614 7.81042Z" fill="white"/>
<path d="M21.7023 8.10278H51.6108C51.8311 8.10278 52.0107 8.33988 52.0107 8.62998V9.60818C52.0107 9.89878 51.8307 10.1354 51.6108 10.1354H21.7023C21.4819 10.1354 21.3023 9.89828 21.3023 9.60818V8.62998C21.3023 8.33958 21.4818 8.10278 21.7023 8.10278Z" fill="white"/>
<path d="M65.5021 34.0822H43.849V31.6901C43.849 31.6094 43.9144 31.5446 43.9951 31.5446H65.3564C65.437 31.5446 65.5024 31.6094 65.5024 31.6901L65.5021 34.0822Z" fill="#1782FF"/>
<path d="M45.3784 31.9732C45.7917 31.9732 46.1264 32.3077 46.1264 32.7211C46.1264 33.1344 45.7919 33.4691 45.3784 33.4691C44.9652 33.4691 44.6305 33.1346 44.6305 32.7211C44.6305 32.3083 44.9656 31.9732 45.3784 31.9732Z" fill="white"/>
<path d="M47.4837 31.9732C47.8973 31.9732 48.2316 32.3077 48.2316 32.7211C48.2316 33.1344 47.8973 33.4691 47.4837 33.4691C47.071 33.4691 46.7358 33.1346 46.7358 32.7211C46.7354 32.3083 47.0704 31.9732 47.4837 31.9732Z" fill="white"/>
<path d="M49.5886 31.9732C50.0018 31.9732 50.3361 32.3077 50.3361 32.7211C50.3361 33.1344 50.0016 33.4691 49.5886 33.4691C49.1755 33.4691 48.8406 33.1346 48.8406 32.7211C48.8404 32.3083 49.1755 31.9732 49.5886 31.9732Z" fill="white"/>
<path d="M52.6294 32.0701H64.6701C64.8314 32.0701 64.9623 32.201 64.9623 32.3623V33.1443C64.9623 33.3056 64.8314 33.4364 64.6701 33.4364H52.6294C52.4682 33.4364 52.3373 33.3056 52.3373 33.1443V32.3623C52.3373 32.201 52.4682 32.0701 52.6294 32.0701Z" fill="white"/>
<path d="M44.8984 34.9021H64.4519V46.4268H44.8984V34.9021Z" fill="#524683"/>
<path d="M55.2503 49.0408C57.1164 49.0408 58.6294 50.5534 58.6294 52.4199C58.6294 54.2863 57.1164 55.7995 55.2503 55.7995C53.3838 55.7995 51.8712 54.2865 51.8712 52.4199C51.8712 50.5532 53.3843 49.0408 55.2503 49.0408Z" stroke="#5398FF" stroke-width="0.5"/>
<path d="M48.9511 58.6931H61.5488V59.5833H48.9511V58.6931ZM48.9511 64.2916H57.4133V65.1824H48.9511V64.2916ZM48.9511 61.4924H61.5488V62.3827H48.9511V61.4924Z" fill="#474846"/>
</svg>
